<?xml version="1.0" encoding="UTF-8" standalone="no"?>
<svg
   width="200"
   height="200"
   viewBox="-100 -100 200 200"
   version="1.1"
   id="svg2"
   sodipodi:docname="favicon.svg"
   inkscape:version="1.4.2 (ebf0e940d0, 2025-05-08)"
   xmlns:inkscape="http://www.inkscape.org/namespaces/inkscape"
   xmlns:sodipodi="http://sodipodi.sourceforge.net/DTD/sodipodi-0.dtd"
   xmlns="http://www.w3.org/2000/svg"
   xmlns:svg="http://www.w3.org/2000/svg">
  <sodipodi:namedview
     id="namedview2"
     pagecolor="#ffffff"
     bordercolor="#000000"
     borderopacity="0.25"
     inkscape:showpageshadow="2"
     inkscape:pageopacity="0.0"
     inkscape:pagecheckerboard="0"
     inkscape:deskcolor="#d1d1d1"
     inkscape:zoom="1.6555007"
     inkscape:cx="106.01023"
     inkscape:cy="112.65474"
     inkscape:window-width="1322"
     inkscape:window-height="678"
     inkscape:window-x="0"
     inkscape:window-y="0"
     inkscape:window-maximized="1"
     inkscape:current-layer="svg2" />
  <defs
     id="defs1">
    <inkscape:path-effect
       effect="fillet_chamfer"
       id="path-effect8"
       is_visible="true"
       lpeversion="1"
       nodesatellites_param="F,0,0,1,0,5,0,1 @ F,0,0,1,0,5,0,1 @ F,0,0,1,0,5,0,1 @ F,0,0,1,0,5,0,1 @ F,0,0,1,0,5,0,1 @ F,0,0,1,0,5,0,1"
       radius="5"
       unit="px"
       method="auto"
       mode="F"
       chamfer_steps="1"
       flexible="false"
       use_knot_distance="true"
       apply_no_radius="true"
       apply_with_radius="true"
       only_selected="false"
       hide_knots="false" />
    <mask
       id="cutout">
      <!-- Full white (opaque) hexagon -->
      <polygon
         points="0,-86.6 75,-43.3 75,43.3 0,86.6 -75,43.3 -75,-43.3"
         fill="white"
         id="polygon1"
         d="m 0,-86.6 75,43.3 V 43.3 L 0,86.6 -75,43.3 v -86.6 z" />
      <!-- Black (transparent) rounded Y shape -->
      <path
         d="M -40,-25 Q -10,-5 0,0 10,-5 40,-25 M 0,0 q 0,25 0,50"
         fill="none"
         stroke="black"
         stroke-width="8"
         stroke-linecap="round"
         id="path1" />
    </mask>
  </defs>
  <!-- Hexagon with rounded Y cutout -->
  <path
     id="polygon2"
     mask="url(#cutout)"
     style="fill:#9966cc"
     d="m 4.3301588,-84.100055 66.3396822,38.30011 A 8.660127,8.660127 59.999636 0 1 75,-38.3 v 76.6 a 8.660127,8.660127 120.00036 0 1 -4.330159,7.499945 L 4.3301588,84.100055 a 8.6605081,8.6605081 0 0 1 -8.6603176,0 L -70.669841,45.799945 A 8.660127,8.660127 59.999636 0 1 -75,38.3 v -76.6 a 8.660127,8.660127 120.00036 0 1 4.330159,-7.499945 l 66.3396822,-38.30011 a 8.6605081,8.6605081 0 0 1 8.6603176,0 z"
     inkscape:path-effect="#path-effect8"
     inkscape:original-d="m 0,-86.6 c 25,14.433333 50,28.866667 75,43.3 0,28.866667 0,57.733333 0,86.6 C 50,57.733333 25,72.166667 0,86.6 -25,72.166667 -50,57.733333 -75,43.3 c 0,-28.866667 0,-57.733333 0,-86.6 25,-14.433333 50,-28.866667 75,-43.3 z" />
</svg>
