<?xml version="1.0" encoding="UTF-8" standalone="no"?>
<!-- Created with Inkscape (http://www.inkscape.org/) -->

<svg
   width="1500"
   height="500"
   viewBox="0 0 1500 500"
   version="1.1"
   id="svg1"
   xmlns="http://www.w3.org/2000/svg"
   xmlns:svg="http://www.w3.org/2000/svg">
  <defs
     id="defs1">
    <rect
       x="203.54486"
       y="120.91774"
       width="1213.208"
       height="328.4932"
       id="rect3" />
    <rect
       x="197.49898"
       y="155.17777"
       width="582.42045"
       height="241.83548"
       id="rect1" />
  </defs>
  <g
     id="layer1">
    <text
       xml:space="preserve"
       id="text1"
       style="font-style:italic;font-weight:bold;font-size:192px;font-family:'Clarity City';-inkscape-font-specification:'Clarity City, Bold Italic';text-align:start;writing-mode:lr-tb;direction:ltr;white-space:pre;shape-inside:url(#rect1);display:inline;fill:#00ff00;fill-opacity:0.5" />
    <text
       xml:space="preserve"
       style="font-style:italic;font-weight:bold;font-size:192px;font-family:'Clarity City';-inkscape-font-specification:'Clarity City, Bold Italic';text-align:start;writing-mode:lr-tb;direction:ltr;text-anchor:start;fill:#00ff00;fill-opacity:0.5"
       x="513.90039"
       y="237.80489"
       id="text2"><tspan
         id="tspan2"></tspan></text>
    <path
       d="m 525.02833,243.15019 c 6.912,18.624 11.904,36.864 7.296,39.936 1.92,0 6.336,0 7.872,0 1.728,0 8.832,0 10.56,0 -8.64,-6.144 -15.36,-19.968 -24.384,-43.584 l -34.368,-90.816 c -1.728,0 -19.776,0 -21.504,0 4.8,3.456 0.768,18.816 -8.64,43.776 l -17.856,47.04 c -8.832,23.232 -15.936,37.44 -24.384,43.584 1.728,0 6.144,0 7.68,0 1.728,0 19.776,0 21.696,0 -4.8,-3.264 1.152,-24.192 8.64,-43.584 l 8.448,-22.08 h 49.152 z m -57.984,-28.608 23.616,-62.208 23.616,62.208 z m 233.08806,29.376 v -33.216 c 0,-14.016 -4.224,-30.72 -29.76,-30.72 -17.28,0 -27.264,10.944 -31.488,27.072 -0.768,-13.056 -6.144,-27.072 -29.76,-27.072 -16.896,0 -26.88,10.752 -31.296,26.496 v -22.656 h -13.632 v 0 h -0.192 c -1.536,0 -5.952,0 -7.68,0 4.8,3.456 7.872,18.432 7.872,43.776 v 12.096 l -0.192,-0.192 c 0,25.344 -2.88,40.32 -7.68,43.584 1.728,0 6.144,0 7.68,0 h 0.192 v 0 c 1.536,0 19.584,0 21.504,0 -4.8,-3.264 -7.68,-17.472 -7.872,-41.664 v -12.288 c 0,-25.536 7.68,-42.624 28.224,-42.624 10.944,0 19.2,7.104 19.2,24.192 v 32.64 c -0.384,23.04 -3.264,36.48 -7.872,39.744 1.728,0 6.144,0 7.872,0 1.536,0 19.584,0 21.504,0 -4.608,-3.072 -7.488,-16.512 -7.872,-39.168 v -14.784 0 c 0,-25.536 7.68,-42.624 28.416,-42.624 10.944,0 19.008,7.104 19.008,24.192 v 32.64 c -0.192,23.04 -3.264,36.48 -7.68,39.744 1.728,0 6.144,0 7.68,0 1.728,0 19.776,0 21.504,0 -4.416,-3.072 -7.488,-16.512 -7.68,-39.168 z m 112.89613,13.248 c -9.792,15.744 -25.344,27.264 -43.008,27.264 -18.816,0 -33.792,-22.848 -33.792,-50.88 0,-7.296 0.96,-14.208 2.688,-20.352 h 54.144 c 0,0 0,0 0,0 h 15.552 c -0.96,-17.088 -15.552,-33.216 -38.592,-33.216 v 0 c -28.224,0 -51.072,24 -51.072,53.568 0,29.568 22.848,53.568 51.072,53.568 19.584,0 36.672,-14.976 45.312,-28.8 z m -43.008,-74.496 c 14.784,0 23.04,13.248 23.232,27.84 h -53.376 c 5.568,-16.512 16.896,-27.84 30.144,-27.84 z m 99.26386,1.152 h -25.92 c 0,-9.792 0,-18.24 0,-23.232 -3.072,9.408 -12.864,22.464 -21.696,25.92 h 7.872 v 69.888 c 0,14.016 6.912,30.528 32.256,30.72 -11.52,-3.456 -18.432,-8.448 -18.432,-30.72 0,0 0,-40.32 0,-69.888 h 25.92 z m 95.42382,60.096 v -33.216 c 0,-14.016 -6.912,-30.72 -32.448,-30.72 -18.048,0 -30.144,11.904 -35.328,29.184 v -60.48 h -13.632 v 0.192 l -0.192,-0.192 c -1.536,0 -5.952,0 -7.68,0 4.8,3.456 7.68,18.432 7.68,43.776 l 0.192,-0.192 v 47.424 l -0.192,-0.192 c 0,25.344 -2.88,40.32 -7.68,43.584 1.728,0 6.144,0 7.68,0 h 0.192 v 0 c 1.536,0 19.584,0 21.504,0 -4.8,-3.264 -7.68,-17.472 -7.872,-41.664 v -12.288 c 0,-25.536 11.52,-42.624 32.064,-42.624 10.944,0 21.888,7.104 21.888,24.192 v 32.64 c -0.192,23.04 -3.264,36.48 -7.68,39.744 1.728,0 6.144,0 7.68,0 1.728,0 19.776,0 21.504,0 -4.416,-3.072 -7.488,-16.512 -7.68,-39.168 z m 92.3521,-60.096 c -1.728,0 -8.832,0 -10.56,0 4.416,3.264 -0.384,21.504 -7.296,39.936 l -15.744,41.472 -14.208,-37.632 c -7.488,-19.584 -13.43996,-40.32 -8.64,-43.776 -1.91996,0 -6.33596,0 -7.87196,0 -1.728,0 -19.776,0 -21.504,0 8.448,6.336 15.552,20.352 24.384,43.776 l 21.11996,55.488 v 0 0 0 c -5.376,13.44 -18.62396,43.008 -44.35196,43.008 l 5.76,14.4 c 15.552,0 33.21596,-36.288 41.27996,-57.408 l 21.12,-55.488 c 8.832,-23.808 15.744,-37.44 24.384,-43.776 -1.92,0 -6.336,0 -7.872,0 z m 142.2724,0 h -25.92 c 0,-9.408 0,-17.472 0,-22.464 0,-20.544 -13.248,-35.328 -30.72,-35.328 -17.088,0 -30.912,13.632 -30.912,30.72 0,9.408 2.688,18.24 9.408,24.576 -3.84,-0.768 -8.064,-1.344 -13.248,-1.344 -23.616,0 -37.824,11.904 -37.824,26.112 0,32.256 62.4,20.352 62.4,54.144 0,16.32 -11.904,24.768 -28.032,24.768 -15.36,0 -28.8,-9.408 -34.368,-22.08 v 20.16 c 15.168,0 18.24,4.032 34.368,4.032 22.848,0 39.936,-11.712 39.936,-31.296 0,-42.24 -63.168,-33.6 -63.168,-55.104 0,-8.64 10.944,-18.624 26.688,-18.624 14.592,0 26.304,9.408 31.872,22.08 v -20.352 c -13.056,0 -25.152,-10.56 -25.152,-27.072 0,-15.552 12.48,-28.032 28.032,-28.032 14.208,0 27.264,11.52 27.264,30.144 0,16.512 -11.328,24.96 -18.24,27.648 h 7.872 v 69.888 c 0,14.016 6.912,30.528 32.256,30.72 -11.52,-3.456 -18.432,-8.448 -18.432,-30.72 0,0 0,-40.32 0,-69.888 h 25.92 z"
       id="text3"
       style="font-size:192px;font-family:Wisteria;-inkscape-font-specification:'Wisteria, Normal';text-align:center;text-anchor:middle;white-space:pre;fill:#9966cc;fill-opacity:1"
       transform="matrix(1.7002719,0,0,1.7002719,-626.49318,-144.54919)"
       aria-label="Amethyst" />
  </g>
</svg>
