<?xml version="1.0" encoding="UTF-8" standalone="no"?>
<!-- Created with Inkscape (http://www.inkscape.org/) -->

<svg
   version="1.1"
   id="svg1"
   width="1080"
   height="1080"
   viewBox="0 0 1080 1080"
   sodipodi:docname="electro7.svg"
   inkscape:version="1.4.2 (ebf0e940d0, 2025-05-08)"
   xmlns:inkscape="http://www.inkscape.org/namespaces/inkscape"
   xmlns:sodipodi="http://sodipodi.sourceforge.net/DTD/sodipodi-0.dtd"
   xmlns="http://www.w3.org/2000/svg"
   xmlns:svg="http://www.w3.org/2000/svg">
  <defs
     id="defs1" />
  <sodipodi:namedview
     id="namedview1"
     pagecolor="#ffffff"
     bordercolor="#000000"
     borderopacity="0.25"
     inkscape:showpageshadow="2"
     inkscape:pageopacity="0.0"
     inkscape:pagecheckerboard="0"
     inkscape:deskcolor="#d1d1d1"
     showgrid="false"
     inkscape:zoom="0.38796296"
     inkscape:cx="538.71122"
     inkscape:cy="540"
     inkscape:window-width="1236"
     inkscape:window-height="630"
     inkscape:window-x="0"
     inkscape:window-y="0"
     inkscape:window-maximized="1"
     inkscape:current-layer="g1" />
  <g
     inkscape:groupmode="layer"
     inkscape:label="Image"
     id="g1">
    <path
       style="fill:#000000"
       d="m 494.49975,1042.3512 c -31.0399,-1.7881 -70.5697,-10.2323 -109.5187,-23.395 -19.7879,-6.6872 -26.5254,-9.5022 -24.9997,-10.4451 0.6839,-0.4227 9.4053,-0.4585 19.3809,-0.079 21.8855,0.8315 89.5609,-1.737 104.7804,-3.9767 16.4798,-2.4253 43.4815,-8.14741 54.3571,-11.51931 10.9046,-3.3808 40.2469,-14.6281 42.239,-16.19066 1.8991,-1.48966 0.667,-2.50163 -3.9943,-3.28058 -14.0661,-2.35114 -47.8348,-13.30174 -77.2447,-25.04961 -32.4285,-12.95363 -70.877,-35.26325 -93.7656,-54.40706 -35.1812,-29.42535 -61.8359,-65.99354 -78.2183,-107.30987 -9.4914,-23.93713 -14.3325,-49.8237 -15.1852,-81.19863 -0.519,-19.10104 1.012,-42.35725 3.522,-53.5 l 0.7884,-3.5 2.5864,5 c 3.8461,7.4351 7.6251,12.25399 18.4723,23.55524 19.3771,20.18817 34.9355,27.25561 59.8,27.16432 18.3257,-0.0673 35.2181,-5.07085 55.2584,-16.36769 24.6287,-13.88333 45.7565,-48.77625 52.8919,-87.35187 2.5668,-13.87712 2.5674,-47.03059 10e-4,-60 -4.2475,-21.4654 -13.1846,-41.36757 -28.0656,-62.5 -8.0174,-11.38552 -33.5838,-36.78361 -45.5857,-45.28569 -28.6347,-20.28459 -64.2449,-30.69552 -105,-30.69763 -36.9258,-0.002 -69.8108,8.42612 -99.8624,25.59357 -39.6932,22.67538 -66.7109,51.31916 -88.096,93.39828 -19.1685,37.71741 -32.1793,85.22972 -36.0077,131.49147 -0.6372,7.7 -1.5922,18.725 -2.1222,24.5 -1.695502,18.47362 -2.196102,58.48505 -0.957202,76.5 0.643102,9.35 1.383602,20.6 1.645702,25 l 0.4764,8 -11.313302,-22.5 c -15.7294,-31.28272 -23.6999,-51.65646 -33.2533,-85 -12.66333,-44.19772 -18.42306,-82.82334 -19.24537,-129.06246 -0.66404,-37.33897 1.9358,-65.10863 9.73077,-103.93754 14.1433,-70.45118 35.3038,-123.98958 69.759802,-176.5 11.4419,-17.43724 34.6586,-48.45933 46.4004,-62 11.7951,-13.60219 33.0489,-34.51032 46.3835,-45.62909 18.6019,-15.51082 20.5761,-17.08908 20.9257,-16.72945 0.1917,0.1972 -3.0481,5.98354 -7.1996,12.85854 -12.2355,20.26237 -33.943,58.42107 -41.8123,73.5 -20.628,39.52671 -32.4732,77.4165 -36.0298,115.25 -0.6185,6.57957 -0.5142,7.25 1.1276,7.25 0.9951,0 8.5907,-6.71559 16.8792,-14.92353 40.5151,-40.12117 79.8595,-68.53569 118.5701,-85.63119 23.3915,-10.33026 50.2546,-18.58699 73.5,-22.59123 17.1932,-2.9617 49.3694,-3.64658 67.5,-1.43677 34.4442,4.19816 67.3062,15.1917 97.9406,32.76468 9.0693,5.20244 32.2484,20.68433 40.0221,26.73175 l 2.4628,1.91584 -3.4628,0.53268 c -1.9045,0.29298 -6.1384,0.79562 -9.4087,1.11699 -13.8365,1.35972 -33.7512,7.05026 -45.5772,13.0235 -25.3343,12.79622 -38.9231,33.66664 -42.9838,66.01684 -2.7433,21.85489 3.8055,50.70093 16.1254,71.02866 17.8513,29.45439 47.4422,52.7284 82.9602,65.25018 30.5873,10.78347 66.3656,12.10508 99.3348,3.6693 57.7899,-14.78666 105.755,-60.6756 126.5958,-121.11624 8.5604,-24.82609 10.94576,-39.2931 10.97246,-66.54661 0.043,-43.47857 -9.37026,-77.30962 -31.94226,-114.80485 -13.3544,-22.1835 -25.5985,-37.5815 -46.5279,-58.51262 -24.1409,-24.14294 -51.7856,-45.46412 -89.5115,-69.036454 -14.2372,-8.895829 -62.0074,-33.962515 -75.5,-39.617426 l -9,-3.772017 7.3153,-0.03074 c 8.9238,-0.0375 40.8141,2.424599 59.1847,4.569382 28.7601,3.35776 61.3383,10.309395 87,18.564314 39.3709,12.664919 87.1525,36.098257 123.99996,60.812841 55.3184,37.10346 108.7028,89.55795 141.4873,139.02272 33.5471,50.61539 53.18809,94.50769 68.91229,154 5.4809,20.73702 9.5969,45.26607 7.7839,46.38662 -0.4269,0.26383 -3.4243,-4.32773 -6.6609,-10.20346 -31.3296,-56.87639 -49.83629,-84.65534 -75.81299,-113.79671 -6.8081,-7.63755 -17.7404,-18.51428 -24.294,-24.17051 -13.0026,-11.22218 -29.1117,-23.1639 -31.2906,-23.19581 -1.7662,-0.0259 -1.4249,1.69294 4.8611,24.47987 12.2515,44.41243 18.0659,95.9886 15.1199,134.11998 -2.24,28.99252 -5.8453,48.41194 -13.1952,71.07426 -14.6066,45.03711 -34.2041,78.04448 -62.4143,105.12186 -18.9346,18.1743 -40.4334,32.70637 -68.99646,46.63807 -13.4895,6.57952 -29.5,13.14692 -29.5,12.10069 0,-0.22118 2.2215,-5.49901 4.9368,-11.7285 9.3691,-21.49548 12.598,-37.06801 11.841,-57.108 -0.3451,-9.13496 -1.0087,-13.73081 -2.6295,-18.21164 -8.7698,-24.24408 -36.5199,-50.23468 -62.6483,-58.67615 -16.1219,-5.20859 -36.2254,-7.11001 -51.653,-4.88542 -35.9217,5.17972 -69.0662,20.83603 -93.2194,44.03352 -19.5439,18.77057 -35.2962,44.81121 -44.1717,73.02133 -21.9667,69.81998 5.6114,153.66831 66.5441,202.32076 12.2826,9.80717 20.7967,15.25398 35.5,22.71064 46.474,23.56896 97.9783,29.23203 158.5119,17.42893 22.7209,-4.43021 69.73026,-21.05289 103.22886,-36.50207 24.1358,-11.13114 43.1971,-22.075 72.5092,-41.63031 14.9875,-9.99879 27.25,-17.94394 27.25,-17.65588 0,0.94249 -11.1417,18.61641 -17.858,28.32793 -20.0819,29.03762 -34.9279,46.76635 -61.142,73.01461 -22.5093,22.53862 -40.4034,37.68371 -63.6246,53.85028 -53.95576,37.56402 -123.13086,68.00883 -182.87536,80.48573 -17.0106,3.5525 -47.2289,8.4828 -59,9.6263 -8.7883,0.8538 -83.6628,1.1429 -97,0.3746 z"
       id="path1" />
  </g>
</svg>
