<?xml version="1.0" encoding="UTF-8" standalone="no"?>
<!-- Created with Inkscape (http://www.inkscape.org/) -->

<svg
   width="2048"
   height="700"
   viewBox="0 0 2048 700"
   version="1.1"
   id="svg1"
   xml:space="preserve"
   xmlns="http://www.w3.org/2000/svg"
   xmlns:svg="http://www.w3.org/2000/svg"><defs
     id="defs1"><rect
       x="115.44375"
       y="470.22211"
       width="1038.9938"
       height="582.85016"
       id="rect3" /><rect
       x="270.30731"
       y="827.81616"
       width="222.4404"
       height="236.51891"
       id="rect2" /><rect
       x="231.05943"
       y="168.39925"
       width="712.75958"
       height="219.31065"
       id="rect1" /></defs><g
     id="layer1"><path
       id="text2"
       style="font-style:italic;font-weight:bold;font-size:192px;font-family:'Clarity City';-inkscape-font-specification:'Clarity City, Bold Italic';white-space:pre"
       transform="matrix(1.8382046,0,0,2.9529267,1205.4698,-2389.1327)"
       d="m 415.26664,872.55241 h -35.136 l -40.512,43.008 -22.464,-43.008 h -32.256 l 33.984,64.896 -63.168,67.00799 h 35.136 l 40.512,-43.00799 22.464,43.00799 h 32.256 l -33.984,-64.89599 z M -610.74697,1004.4564 h 28.416 l 9.024,-42.81602 h 31.296 c 32.64,0 59.136,-22.464 59.136,-51.648 0,-22.272 -16.896,-37.44 -42.048,-37.44 h -58.368 z m 42.816,-68.73602 7.68,-37.248 h 29.568 c 11.52,0 19.008,5.376 19.008,13.44 0,12.288 -13.44,23.808 -28.224,23.808 z m 179.13614,68.73602 h 31.104 l -26.112,-131.52002 0.384,-0.384 h -32.256 l -81.024,131.90402 h 32.256 l 13.824,-22.65602 h 57.216 z m -48.192,-44.73602 29.568,-48 9.6,48 z m 228.86418,-49.728 c 0,-22.272 -16.896,-37.44 -42.048,-37.44 h -58.368 l -27.456,131.90402 h 28.416 l 9.024,-42.81602 h 17.664 l 25.92,42.81602 h 31.488 l -27.072,-44.92802 c 24.384,-5.952 42.432,-25.536 42.432,-49.536 z m -57.024,25.728 h -28.032 l 7.68,-37.248 h 29.568 c 11.52,0 19.008,5.376 19.008,13.44 0,12.288 -13.44,23.808 -28.224,23.808 z m 158.40016,68.73602 h 31.104004 l -26.112004,-131.52002 0.384,-0.384 h -32.256 l -81.024,131.90402 h 32.256 l 13.824,-22.65602 h 57.216 z m -48.192,-44.73602 29.568,-48 9.6,48 z m 100.992184,44.73602 h 48.3839998 c 48.7680002,0 89.6640002,-35.52002 89.6640002,-77.95202 0,-31.488 -26.496,-53.952 -64.128,-53.952 h -46.464 z m 33.792,-25.72802 16.8959998,-80.448 H 20.165694 c 20.544,0 35.136,12.288 35.136,29.568 0,27.648 -24.576,50.88 -53.7600002,50.88 z m 188.941176,25.70932 c -7.01086,-0.1787 -13.15055,-0.8217 -19.81765,-2.0753 -4.81111,-0.9046 -10.46472,-2.50098 -15.18836,-4.28872 -2.74164,-1.03754 -7.05411,-3.00641 -8.95123,-4.08663 -2.39625,-1.36439 -4.31731,-2.56486 -5.93367,-3.70795 -2.11957,-1.49919 -2.88869,-2.1108 -4.61265,-3.66835 -3.2936,-2.97579 -5.25306,-5.30551 -7.53583,-8.95997 -1.84621,-2.95565 -3.23615,-6.50042 -3.91002,-9.97211 -0.40855,-2.10467 -0.42835,-2.33737 -0.4253,-5.00931 0,-3.32429 0.12109,-4.78517 0.53764,-6.66369 0.8164,-3.68386 1.88646,-6.50769 3.6948,-9.75034 1.69383,-3.03721 3.70971,-5.88212 5.86992,-8.28335 2.69132,-2.99187 4.7956,-4.98198 8.05595,-7.61891 4.17892,-3.37981 10.3729,-7.19596 16.01579,-9.86738 2.93216,-1.38819 6.18555,-2.76564 8.7486,-3.70398 5.58425,-2.04451 10.37735,-3.44805 15.72393,-4.6044 0.56821,-0.12287 1.06506,-0.24048 1.10444,-0.26133 0.0413,-0.0221 -0.0424,-0.10154 -0.20134,-0.19005 -0.1503,-0.0838 -0.52491,-0.31992 -0.83244,-0.52496 -0.30764,-0.20502 -1.19823,-0.78239 -1.97921,-1.28302 -3.04569,-1.95256 -3.83619,-2.46483 -4.63518,-3.00407 -0.45571,-0.30754 -1.3876,-0.93664 -2.07104,-1.39795 -2.58611,-1.74588 -3.61668,-2.52338 -5.13675,-3.87606 -2.26629,-2.0164 -2.79142,-2.68325 -4.43335,-5.6301 -1.64992,-2.96108 -2.1781,-4.87853 -2.05352,-7.4558 0.0277,-0.56385 0.0799,-1.2139 0.11962,-1.44457 0.0381,-0.23066 0.10663,-0.67103 0.15129,-0.97857 0.35317,-2.43363 0.99831,-4.91585 1.60973,-6.19376 1.02594,-2.14448 4.28962,-6.40272 6.35125,-8.28699 1.44097,-1.31716 3.5317,-2.58306 7.98942,-4.83788 3.64122,-1.8418 7.13213,-3.29774 11.63059,-4.85055 4.36703,-1.50762 5.87443,-1.92004 9.60252,-2.62759 0.9129,-0.17323 9.40347,-1.58843 11.00161,-1.83365 3.98225,-0.61117 6.13212,-0.81251 13.98092,-1.30928 0.79953,-0.0506 1.78092,-0.11335 2.18066,-0.13928 0.39985,-0.0259 1.26069,-0.0786 1.91307,-0.11647 5.04361,-0.29435 10.22769,-0.67876 11.09457,-0.82268 0.97155,-0.16131 1.49864,-0.34718 2.22647,-0.78553 0.36171,-0.21784 0.81383,-0.51143 1.00478,-0.6524 0.33761,-0.24931 1.20678,-1.04161 1.20678,-1.10003 0,-0.0159 0.12093,-0.13062 0.27178,-0.25468 0.35132,-0.29158 0.90431,-0.55605 2.61244,-1.24949 2.9611,-1.20222 3.29175,-1.45066 2.69579,-2.02469 -0.97052,-0.93479 -1.00082,-0.98952 -0.76194,-1.37881 0.23338,-0.37974 0.84153,-0.86842 2.12838,-1.70985 1.3585,-0.88838 2.25312,-1.25137 3.17168,-1.28674 l 0.3263,-0.0126 -0.0152,0.44269 c -0.0152,0.50498 -0.0737,0.65508 -0.53933,1.22358 -0.18425,0.22444 -0.33516,0.45805 -0.33516,0.51911 0,0.18438 0.64509,0.66558 1.8801,1.40274 2.00233,1.19514 2.34511,1.48625 2.64192,2.24209 0.25492,0.64888 0.11419,1.28798 -0.3838,1.7442 -0.12392,0.11422 -0.5415,0.35437 -0.92677,0.53379 -0.78713,0.36667 -2.44995,1.46782 -2.7887,1.84685 -0.19731,0.22095 -0.20134,0.2372 -0.0772,0.32096 0.24475,0.16462 1.59591,0.38095 3.5502,0.56839 0.87395,0.0839 1.3745,0.0998 3.14361,0.10062 2.05641,6.8e-4 2.1193,-0.001 2.77325,-0.12199 1.46551,-0.26935 2.15232,-0.6213 3.90615,-2.00141 2.37656,-1.87022 2.99145,-2.21153 4.49167,-2.49398 1.16059,-0.21845 2.17217,-0.16163 4.89717,0.27505 2.45821,0.39393 2.63686,0.41371 3.99079,0.44198 1.17093,0.0245 1.32021,0.0182 1.83457,-0.0769 1.5106,-0.27948 2.48253,-0.7312 5.61373,-2.60997 3.14873,-1.88926 3.81231,-2.23676 4.97105,-2.60326 l 0.53819,-0.17025 1.37732,0.003 c 1.36992,0.003 1.3807,0.005 2.05189,0.157 1.22745,0.28183 3.55614,1.23954 5.00108,2.05676 1.0544,0.59639 1.20503,0.77416 0.84272,0.99477 l -0.17653,0.10756 -0.76063,-0.0826 c -1.24322,-0.13514 -3.14715,-0.20963 -3.59699,-0.1407 -0.54662,0.0839 -1.20242,0.34453 -1.82308,0.72488 -0.94511,0.57894 -1.37624,1.15131 -1.49684,1.98744 -0.0359,0.2465 -0.0452,1.6133 -0.0223,3.03738 0.0557,3.37572 0.13405,3.14428 -1.47943,4.29646 -0.539,0.38443 -1.48096,1.00511 -2.09335,1.37927 -1.86698,1.14027 -2.93748,1.51321 -5.02076,1.74946 -0.63013,0.0715 -1.12121,0.0856 -2.86476,0.0822 -1.15748,-0.003 -2.25916,-0.018 -2.44874,-0.0353 -0.65815,-0.0597 -3.3338,-0.12995 -4.38564,-0.11509 l -1.05826,0.0149 -0.22555,0.16309 c -0.34082,0.24648 -1.12659,0.97889 -1.74926,1.63097 -0.96779,1.01237 -1.65373,1.90061 -2.67674,3.46426 -1.08291,1.65476 -1.33669,1.84415 -4.63366,3.45586 -2.74887,1.34383 -3.3568,1.69868 -3.13784,1.83231 0.0288,0.0174 0.72283,0.0384 1.54319,0.0467 1.15074,0.0113 1.55581,0 1.77265,-0.0506 0.15472,-0.0363 0.43456,-0.0704 0.62251,-0.0759 0.57421,-0.017 1.77783,-0.38255 2.84784,-0.86508 0.76079,-0.34293 0.9024,-0.45721 0.71923,-0.58049 -0.15809,-0.10631 -0.15482,-0.34837 0.0152,-0.42944 0.17093,-0.0863 0.77326,-0.0746 1.07382,0.0209 0.39332,0.12502 1.19214,0.64428 1.45746,0.94751 0.1892,0.21615 0.28076,0.41509 0.40055,0.86965 0.33625,1.27677 0.0781,2.43484 -0.61005,2.74081 -0.31803,0.14144 -1.23871,0.22689 -2.74768,0.25508 -0.78196,0.0146 -1.52899,0.0462 -1.65945,0.0703 -0.13121,0.0239 -0.437,0.0633 -0.68071,0.0877 -0.53564,0.0531 -0.89125,0.1924 -1.11756,0.43787 -0.14427,0.157 -0.18382,0.31309 -0.2725,1.09392 -0.16037,1.4135 -0.36209,1.91462 -0.97519,2.42326 -0.52371,0.43452 -1.32237,0.6737 -2.88107,0.86282 -1.50244,0.18231 -3.29664,0.26826 -6.15497,0.29488 l -2.60162,0.0243 -1.57403,-0.23566 c -1.99913,-0.29918 -3.14215,-0.52403 -4.01158,-0.78917 -0.37863,-0.11546 -1.66984,-0.57049 -2.86916,-1.01112 -3.36856,-1.2376 -4.9791,-1.71489 -6.52599,-1.93401 -0.74937,-0.10618 -2.0304,-0.12599 -3.22983,-0.0501 -0.3789,0.024 -1.20515,0.0656 -1.83636,0.0925 -1.30638,0.0559 -3.50804,0.16088 -5.47088,0.26144 -0.73643,0.0378 -1.75225,0.0898 -2.25731,0.11547 -3.28897,0.16785 -6.00026,0.54759 -10.06597,1.40978 -2.36649,0.50182 -2.90751,0.68906 -4.85452,1.6795 -2.94238,1.4968 -3.69104,1.99987 -5.66188,3.80529 -1.2034,1.10233 -1.34191,1.32724 -1.76482,2.86583 -0.16489,0.59988 -0.19628,0.83209 -0.16032,1.18826 0.1001,0.99101 1.09993,2.88375 2.05037,3.88122 0.8362,0.87748 1.71553,1.42375 3.37182,2.09452 1.94076,0.78604 2.84436,1.0731 7.25322,2.30395 0.77832,0.21738 3.18866,0.93636 5.35599,1.59773 2.16712,0.66139 4.69153,1.41527 5.60982,1.67524 3.42672,0.97026 10.42441,3.15446 12.43268,3.88052 1.12648,0.4073 3.36747,1.31162 5.52435,2.22939 5.42019,2.30634 10.64528,5.11705 13.85706,7.45419 2.56712,1.86781 4.384,3.40025 6.90663,5.82485 0.20003,0.19222 0.64166,0.61161 0.98134,0.93196 2.00581,1.89135 3.14508,3.1002 4.65514,4.93948 1.1713,1.42701 1.67141,2.07395 2.21433,2.86583 0.33794,0.49298 1.38217,2.12318 1.6119,2.51633 1.13154,1.93735 1.76863,3.18937 2.28805,4.49678 0.7114,1.7897 0.97285,2.9213 1.30524,5.64942 0.0462,0.37762 0.11674,0.74457 0.15711,0.81544 0.15243,0.2685 0.30742,1.5894 0.3875,3.29759 0.0879,1.90519 0.0446,4.76724 -0.0843,5.33552 -0.0446,0.19228 -0.11419,0.59066 -0.15717,0.88542 -0.0413,0.29468 -0.11179,0.64069 -0.15325,0.7689 -0.0408,0.12808 -0.12387,0.58944 -0.18463,1.02516 -0.15738,1.13518 -0.34066,2.19953 -0.4252,2.46973 -0.0892,0.28217 -0.25791,0.97837 -0.46034,1.88723 -0.69116,3.10098 -2.27972,7.1547 -4.01664,10.2517 -0.67364,1.20113 -2.40392,3.80972 -3.32286,5.00962 -0.17044,0.22284 -0.31014,0.41334 -0.31014,0.42345 0,0.0388 -1.54596,1.93273 -1.9933,2.44217 -1.4846,1.69034 -4.44042,4.61472 -5.91164,5.84816 -3.57528,2.99793 -6.14398,4.85161 -9.88388,7.13205 -3.04836,1.85897 -4.97246,2.92567 -7.30828,4.05188 -0.526,0.25362 -1.18017,0.56947 -1.45397,0.70187 -3.00908,1.45709 -7.27422,3.18285 -11.3755,4.60284 -2.64503,0.91581 -7.64278,2.34806 -11.11998,3.18696 -5.73391,1.3833 -13.54953,2.5636 -19.81765,2.9929 -4.62169,0.3165 -8.99753,0.4616 -11.78335,0.3906 z m 8.09643,-20.82204 c 5.59236,-0.34648 11.29298,-2.0109 16.27354,-4.75179 2.63453,-1.44975 4.43993,-2.66403 6.58382,-4.42833 2.9432,-2.42215 5.18234,-4.83949 7.50325,-8.10033 1.80159,-2.53076 3.21879,-5.36438 4.4303,-8.85805 0.50826,-1.46567 0.69214,-2.14984 0.95288,-3.5451 0.0844,-0.46134 0.17447,-0.93311 0.19606,-1.04844 0.63927,-3.39906 0.68698,-3.89522 0.57105,-5.94137 -0.1106,-1.96184 -0.1811,-2.75602 -0.29616,-3.35515 -0.0495,-0.25631 -0.12093,-0.64418 -0.16146,-0.86206 -0.1953,-1.07667 -1.07159,-3.91274 -1.50408,-4.86957 -0.15074,-0.33318 -0.30257,-0.68967 -0.33734,-0.79219 -0.0332,-0.10256 -0.27195,-0.59064 -0.52747,-1.08476 -1.64905,-3.1896 -4.38759,-6.3474 -7.52571,-8.67767 -0.74703,-0.55481 -2.99831,-1.90692 -3.93977,-2.36617 -4.018,-1.96037 -8.78809,-3.04473 -13.59669,-3.09084 -1.12947,-0.0113 -3.10564,0.0739 -3.82574,0.16404 -2.21559,0.27738 -4.15145,0.67341 -6.41023,1.31152 -5.25317,1.48403 -10.83959,4.4898 -15.10773,8.12874 -3.50309,2.98658 -6.20573,6.17535 -8.55438,10.0929 -0.75514,1.25948 -1.03176,1.77012 -1.51898,2.80305 -1.28391,2.72207 -2.12191,5.3743 -2.65378,8.39969 -0.0892,0.49974 -0.19155,1.03448 -0.23034,1.18828 -0.12017,0.47944 -0.18023,5.75402 -0.0772,6.75678 0.16984,1.64017 0.66331,3.93306 1.16401,5.40551 0.79622,2.34268 1.8665,4.45249 3.17419,6.2577 2.4568,3.39105 5.00249,5.65412 8.70355,7.73671 3.44433,1.93799 8.13794,3.24993 12.74928,3.56344 0.67593,0.046 2.97437,0.0251 3.96436,-0.0364 z" /></g></svg>
