<?xml version="1.0" encoding="UTF-8" standalone="no"?>
<!-- Created with Inkscape (http://www.inkscape.org/) -->

<svg
   width="2048"
   height="700"
   viewBox="0 0 2048 700"
   version="1.1"
   id="svg1"
   xml:space="preserve"
   xmlns="http://www.w3.org/2000/svg"
   xmlns:svg="http://www.w3.org/2000/svg"><defs
     id="defs1"><rect
       x="115.44375"
       y="470.22211"
       width="1038.9938"
       height="582.85016"
       id="rect3" /><rect
       x="270.30731"
       y="827.81616"
       width="222.4404"
       height="236.51891"
       id="rect2" /><rect
       x="231.05943"
       y="168.39925"
       width="712.75958"
       height="219.31065"
       id="rect1" /></defs><path
     style="fill:#000000;stroke-width:0.13912"
     d="m 1515.7346,576.89834 c -12.8874,-0.52793 -24.1734,-2.42653 -36.4289,-6.12826 -8.8438,-2.67141 -19.2363,-7.38531 -27.9193,-12.66436 -5.0397,-3.06379 -12.9669,-8.87772 -16.4542,-12.06752 -4.4048,-4.02893 -7.9361,-7.57385 -10.9073,-10.9493 -3.8962,-4.42701 -5.31,-6.23303 -8.479,-10.83238 -6.0543,-8.78727 -9.6562,-15.66677 -13.8524,-26.45814 -3.3937,-8.7278 -5.9487,-19.19524 -7.1874,-29.44691 -0.751,-6.21492 -0.7874,-6.90206 -0.7818,-14.79211 0,-9.81639 0.2226,-14.13026 0.9883,-19.67739 1.5007,-10.87817 3.4677,-19.21673 6.7918,-28.79204 3.1136,-8.96865 6.8192,-17.36947 10.7901,-24.46012 4.9472,-8.83477 8.8153,-14.71143 14.8085,-22.49808 7.6817,-9.98034 19.0675,-21.24916 29.4403,-29.13765 5.3899,-4.09923 11.3703,-8.16674 16.0817,-10.93759 10.265,-6.0373 19.0757,-10.18185 28.9038,-13.59647 1.0445,-0.36281 1.9578,-0.7101 2.0302,-0.77167 0.076,-0.0652 -0.078,-0.29984 -0.3701,-0.56122 -0.2763,-0.2474 -0.9649,-0.9447 -1.5302,-1.55017 -0.5655,-0.60541 -2.2026,-2.31033 -3.6382,-3.78866 -5.5986,-5.76575 -7.0517,-7.27844 -8.5204,-8.8708 -0.8377,-0.90813 -2.5507,-2.76582 -3.807,-4.12804 -4.7538,-5.15546 -6.6482,-7.45135 -9.4424,-11.4457 -4.1659,-5.95429 -5.1312,-7.92345 -8.1494,-16.62528 -3.0329,-8.74387 -4.0038,-14.40596 -3.7748,-22.01644 0.051,-1.665 0.1469,-3.58457 0.2199,-4.26572 0.07,-0.6811 0.196,-1.98148 0.2781,-2.88964 0.6492,-7.18631 1.8351,-14.51613 2.959,-18.28971 1.8859,-6.33249 7.8852,-18.90677 11.6749,-24.47089 2.6488,-3.88946 6.492,-7.62758 14.6862,-14.28589 6.6933,-5.43871 13.1103,-9.73798 21.3794,-14.32332 8.0275,-4.4519 10.7984,-5.66975 17.6514,-7.75908 1.6781,-0.51155 17.2855,-4.69052 20.2232,-5.41463 7.3202,-1.80475 11.2721,-2.3993 25.6998,-3.86622 1.4697,-0.14932 3.2737,-0.33471 4.0085,-0.41128 0.735,-0.0765 2.3174,-0.23198 3.5166,-0.34391 9.2712,-0.86921 18.8006,-2.00435 20.3941,-2.42934 1.7859,-0.47632 2.7548,-1.02517 4.0927,-2.31961 0.6649,-0.64326 1.496,-1.5102 1.847,-1.92648 0.6206,-0.73619 2.2183,-3.07579 2.2183,-3.24832 0,-0.0469 0.2223,-0.38571 0.4996,-0.75205 0.6458,-0.861 1.6623,-1.64195 4.8022,-3.68963 5.4431,-3.55008 6.0509,-4.2837 4.9554,-5.97876 -1.784,-2.76038 -1.8397,-2.92198 -1.4006,-4.07155 0.429,-1.12134 1.5469,-2.56436 3.9124,-5.04906 2.4972,-2.62332 4.1417,-3.69519 5.8302,-3.79963 l 0.5998,-0.0371 -0.028,1.30723 c -0.028,1.49117 -0.1354,1.93442 -0.9914,3.61314 -0.3387,0.66276 -0.6161,1.35261 -0.6161,1.53289 0,0.54447 1.1858,1.96542 3.456,4.1422 3.6807,3.52915 4.3108,4.3888 4.8564,6.62072 0.4686,1.9161 0.2099,3.80332 -0.7055,5.15049 -0.2278,0.33729 -0.9954,1.04643 -1.7036,1.57624 -1.4469,1.08275 -4.5035,4.33439 -5.1262,5.45364 -0.3627,0.65245 -0.3701,0.70043 -0.142,0.94777 0.4499,0.48609 2.9336,1.1249 6.526,1.67841 1.6065,0.24767 2.5266,0.29469 5.7786,0.29712 3.7801,0.002 3.8957,-0.003 5.0978,-0.36022 2.6939,-0.79539 3.9564,-1.83466 7.1803,-5.91003 4.3686,-5.52263 5.4989,-6.53048 8.2566,-7.36455 2.1334,-0.64505 3.9929,-0.47726 9.002,0.81222 4.5187,1.16324 4.8471,1.22166 7.3359,1.30513 2.1524,0.0724 2.4268,0.0537 3.3723,-0.22704 2.7768,-0.82529 4.5634,-2.1592 10.3192,-7.70707 5.788,-5.57883 7.0078,-6.60498 9.1378,-7.68724 l 0.9893,-0.50271 2.5318,0.009 c 2.5182,0.009 2.538,0.0138 3.7718,0.46361 2.2563,0.83222 6.5369,3.66026 9.193,6.07346 1.9382,1.76108 2.2151,2.28603 1.5491,2.93747 l -0.3245,0.31762 -1.3982,-0.24402 c -2.2853,-0.39907 -5.7851,-0.61904 -6.612,-0.41547 -1.0048,0.24766 -2.2103,1.01737 -3.3512,2.14051 -1.7373,1.70955 -2.5298,3.39973 -2.7515,5.86877 -0.066,0.72789 -0.083,4.76396 -0.041,8.96914 0.1023,9.96826 0.2464,9.28485 -2.7195,12.68713 -0.9908,1.1352 -2.7223,2.96803 -3.848,4.0729 -3.4319,3.36712 -5.3997,4.46839 -9.2292,5.16602 -1.1583,0.21112 -2.061,0.25286 -5.266,0.2427 -2.1277,-0.009 -4.1528,-0.0532 -4.5013,-0.10413 -1.2098,-0.1764 -6.1282,-0.38371 -8.0617,-0.33985 l -1.9453,0.044 -0.4146,0.4816 c -0.6265,0.72785 -2.0709,2.89059 -3.2155,4.81615 -1.779,2.98943 -3.0399,5.61234 -4.9204,10.22968 -1.9906,4.8864 -2.4571,5.44565 -8.5176,10.20491 -5.053,3.96824 -6.1705,5.01609 -5.768,5.41067 0.053,0.0513 1.3287,0.11327 2.8367,0.13781 2.1153,0.0335 2.8599,0 3.2585,-0.14949 0.2844,-0.10725 0.7988,-0.208 1.1443,-0.22417 1.0555,-0.0502 3.268,-1.12963 5.2349,-2.55451 1.3985,-1.01265 1.6588,-1.35012 1.3221,-1.71414 -0.2906,-0.31393 -0.2846,-1.02872 0.028,-1.26812 0.3142,-0.25497 1.4214,-0.22025 1.9739,0.0618 0.723,0.36916 2.1914,1.90249 2.6791,2.79791 0.3478,0.63829 0.5161,1.22573 0.7363,2.56801 0.6181,3.77022 0.1436,7.18991 -1.1214,8.09342 -0.5846,0.41765 -2.277,0.66999 -5.0508,0.75323 -1.4374,0.0432 -2.8106,0.13643 -3.0504,0.20746 -0.2412,0.0707 -0.8033,0.18685 -1.2513,0.25888 -0.9846,0.15684 -1.6383,0.56812 -2.0543,1.29298 -0.2652,0.46362 -0.3379,0.92454 -0.5009,3.23026 -0.2948,4.17397 -0.6656,5.65373 -1.7926,7.15571 -0.9627,1.28313 -2.4308,1.98939 -5.296,2.54785 -2.7618,0.53834 -6.0599,0.79216 -11.3141,0.87076 l -4.7823,0.0717 -2.8934,-0.69588 c -3.6748,-0.88346 -5.7759,-1.54743 -7.3741,-2.33036 -0.696,-0.34094 -3.0695,-1.68461 -5.2741,-2.98578 -6.1921,-3.65454 -9.1526,-5.06392 -11.9961,-5.71098 -1.3775,-0.31353 -3.7323,-0.37204 -5.9371,-0.14795 -0.6965,0.0708 -2.2153,0.19365 -3.3756,0.27317 -2.4014,0.16494 -6.4485,0.47507 -10.0566,0.77204 -1.3537,0.11172 -3.221,0.26526 -4.1494,0.34095 -6.0458,0.49565 -11.0297,1.617 -18.5033,4.163 -4.3501,1.48182 -5.3446,2.03472 -8.9236,4.95944 -5.4087,4.41992 -6.7849,5.90546 -10.4077,11.23674 -2.2121,3.2551 -2.4667,3.91924 -3.2441,8.46259 -0.3031,1.77138 -0.3608,2.4571 -0.2947,3.50884 0.184,2.92636 2.0219,8.51549 3.769,11.46095 1.5371,2.59114 3.1535,4.20423 6.1981,6.18497 3.5675,2.3211 5.2285,3.16878 13.3329,6.80338 1.4307,0.64191 5.8614,2.765 9.8454,4.71799 3.9836,1.95305 8.624,4.17918 10.312,4.94686 6.299,2.86512 19.1622,9.31488 22.8538,11.45889 2.0707,1.20273 6.1901,3.87312 10.1549,6.58323 9.9634,6.81044 19.5682,15.11027 25.4721,22.01166 4.7189,5.51553 8.0587,10.04071 12.6958,17.20036 0.3677,0.56762 1.1795,1.80604 1.8039,2.75203 3.6871,5.58502 5.7813,9.15466 8.5571,14.58592 2.1531,4.21385 3.0724,6.12422 4.0704,8.46257 0.6212,1.45574 2.5407,6.26959 2.963,7.43055 2.08,5.72086 3.2511,9.41798 4.2059,13.27866 1.3077,5.28485 1.7883,8.62637 2.3993,16.68232 0.085,1.11509 0.2146,2.19865 0.2888,2.40794 0.2802,0.79285 0.5651,4.69337 0.7123,9.73753 0.1616,5.62588 0.082,14.07731 -0.155,15.7554 -0.082,0.5678 -0.2099,1.74419 -0.2889,2.61458 -0.076,0.87016 -0.2055,1.89193 -0.2817,2.27051 -0.075,0.37822 -0.2277,1.74057 -0.3394,3.02721 -0.2893,3.35211 -0.6262,6.49507 -0.7816,7.29295 -0.1639,0.83321 -0.4741,2.88905 -0.8462,5.57286 -1.2705,9.15695 -4.1906,21.1273 -7.3834,30.2725 -1.2383,3.54684 -4.4189,11.24983 -6.1081,14.79304 -0.3133,0.65803 -0.5701,1.22056 -0.5701,1.25041 0,0.11447 -2.8418,5.70722 -3.6641,7.21156 -2.729,4.99145 -8.1624,13.62694 -10.8668,17.2692 -6.5721,8.85266 -11.2939,14.32643 -18.1686,21.06042 -5.6035,5.48938 -9.1404,8.63928 -13.4341,11.96488 -0.9669,0.74894 -2.1694,1.68163 -2.6727,2.07259 -5.5313,4.30268 -13.3715,9.39872 -20.9105,13.59185 -4.8621,2.7043 -14.049,6.93375 -20.4408,9.41084 -10.5401,4.08482 -24.9068,7.57006 -36.4289,8.83785 -8.4956,0.93462 -16.5393,1.36302 -21.6602,1.15328 z m 14.8829,-61.4861 c 10.2799,-1.02313 20.7588,-5.93805 29.9141,-14.03169 4.8428,-4.28099 8.1615,-7.86668 12.1024,-13.07653 5.4102,-7.15242 9.5262,-14.29067 13.7925,-23.91967 3.3117,-7.47317 5.9168,-15.84062 8.1438,-26.15719 0.9343,-4.32802 1.2723,-6.34831 1.7516,-10.46842 0.1551,-1.3623 0.3207,-2.7554 0.3604,-3.09595 1.1751,-10.03719 1.2628,-11.50232 1.0497,-17.54443 -0.2033,-5.79318 -0.3329,-8.13832 -0.5444,-9.90752 -0.091,-0.75686 -0.2223,-1.90221 -0.2968,-2.54561 -0.359,-3.17931 -1.9698,-11.55403 -2.7648,-14.37948 -0.2771,-0.98384 -0.5562,-2.03654 -0.6201,-2.33926 -0.061,-0.30287 -0.4999,-1.74413 -0.9696,-3.20322 -3.0313,-9.41866 -8.0653,-18.7434 -13.8338,-25.62453 -1.3732,-1.63831 -5.5115,-5.631 -7.2421,-6.98713 -7.3859,-5.78882 -16.1543,-8.99086 -24.9935,-9.12703 -2.0762,-0.0334 -5.7088,0.21816 -7.0325,0.4844 -4.0727,0.8191 -7.6312,1.98854 -11.7833,3.87282 -9.6564,4.38223 -19.9254,13.25807 -27.7711,24.00359 -6.4394,8.81913 -11.4074,18.23536 -15.7247,29.8036 -1.3881,3.71913 -1.8966,5.22701 -2.7922,8.27719 -2.3601,8.03808 -3.9005,15.8699 -4.8782,24.80368 -0.164,1.47569 -0.3521,3.05472 -0.4234,3.50888 -0.2209,1.41576 -0.3313,16.9912 -0.1419,19.9523 0.3122,4.84328 1.2193,11.61403 2.1397,15.96206 1.4636,6.91775 3.431,13.14789 5.8348,18.47854 4.5161,10.01352 9.1956,16.69618 15.9989,22.84593 6.3314,5.72275 14.9592,9.5968 23.4358,10.52257 1.2425,0.13592 5.4675,0.0742 7.2873,-0.10746 z"
     id="path1" /><g
     id="layer1"><path
       d="m 237.39459,345.03844 h 28.416 l 9.024,-42.816 h 31.296 c 32.64,0 59.136,-22.464 59.136,-51.648 0,-22.272 -16.896,-37.44 -42.048,-37.44 h -58.368 z m 42.816,-68.736 7.68,-37.248 h 29.568 c 11.52,0 19.008,5.376 19.008,13.44 0,12.288 -13.44,23.808 -28.224,23.808 z m 179.13614,68.736 h 31.104 l -26.112,-131.52 0.384,-0.384 h -32.256 l -81.024,131.904 h 32.256 l 13.824,-22.656 h 57.216 z m -48.192,-44.736 29.568,-48 9.6,48 z m 228.86418,-49.728 c 0,-22.272 -16.896,-37.44 -42.048,-37.44 h -58.368 l -27.456,131.904 h 28.416 l 9.024,-42.816 h 17.664 l 25.92,42.816 h 31.488 l -27.072,-44.928 c 24.384,-5.952 42.432,-25.536 42.432,-49.536 z m -57.024,25.728 h -28.032 l 7.68,-37.248 h 29.568 c 11.52,0 19.008,5.376 19.008,13.44 0,12.288 -13.44,23.808 -28.224,23.808 z m 158.40016,68.736 h 31.104 l -26.112,-131.52 0.384,-0.384 h -32.256 l -81.024,131.904 h 32.256 l 13.824,-22.656 h 57.216 z m -48.192,-44.736 29.568,-48 9.6,48 z m 100.99218,44.736 h 48.384 c 48.768,0 89.664,-35.52 89.664,-77.952 0,-31.488 -26.496,-53.952 -64.128,-53.952 h -46.464 z m 33.792,-25.728 16.896,-80.448 h 23.424 c 20.544,0 35.136,12.288 35.136,29.568 0,27.648 -24.576,50.88 -53.76,50.88 z"
       id="text1"
       style="font-style:italic;font-weight:bold;font-size:192px;font-family:'Clarity City';-inkscape-font-specification:'Clarity City, Bold Italic';white-space:pre"
       transform="matrix(1.8382046,0,0,2.9529267,-353.58791,-441.91986)"
       aria-label="PARAD" /><path
       d="m 415.26664,872.55241 h -35.136 l -40.512,43.008 -22.464,-43.008 h -32.256 l 33.984,64.896 -63.168,67.00799 h 35.136 l 40.512,-43.00799 22.464,43.00799 h 32.256 l -33.984,-64.89599 z"
       id="text2"
       style="font-style:italic;font-weight:bold;font-size:192px;font-family:'Clarity City';-inkscape-font-specification:'Clarity City, Bold Italic';white-space:pre"
       transform="matrix(1.8382046,0,0,2.9529267,1205.4698,-2389.1327)"
       aria-label="X" /></g></svg>
