<?xml version="1.0" encoding="UTF-8" standalone="no"?>
<!-- Created with Inkscape (http://www.inkscape.org/) -->

<svg
   version="1.1"
   id="svg1"
   width="4096"
   height="4096"
   viewBox="0 0 4096 4096"
   xmlns="http://www.w3.org/2000/svg"
   xmlns:svg="http://www.w3.org/2000/svg">
  <defs
     id="defs1" />
  <g
     id="g1">
    <path
       style="fill:#000000"
       d="m 1718.2431,3788.4485 c -91.6261,-3.8366 -171.8678,-17.6345 -259,-44.5361 -62.8791,-19.4137 -136.7654,-53.6714 -198.5,-92.0355 -35.831,-22.2667 -92.1929,-64.5183 -116.9861,-87.6984 -31.3173,-29.2798 -56.424,-55.0423 -77.5469,-79.5725 -27.7032,-32.172 -37.754,-45.2967 -60.2847,-78.7224 -43.04453,-63.8589 -68.65323,-113.8554 -98.48643,-192.2776 -24.1294,-63.4283 -42.2938,-139.4981 -51.1004,-214 -5.339,-45.166 -5.5973,-50.1597 -5.5607,-107.5 0.046,-71.3369 1.5863,-102.6876 7.0275,-143 10.6705,-79.0551 24.6555,-139.6539 48.2885,-209.24 22.1361,-65.1785 48.483,-126.2291 76.7136,-177.76 35.17403,-64.2049 62.67583,-106.9125 105.28663,-163.5 54.6157,-72.5303 135.5656,-154.4242 209.3111,-211.7521 38.3214,-29.7902 80.8417,-59.3499 114.3379,-79.4867 72.9821,-43.8744 135.624,-73.9941 205.5,-98.8092 7.425,-2.6369 13.9205,-5.1603 14.4345,-5.6077 0.5437,-0.4731 -0.558,-2.1792 -2.6337,-4.0788 -1.9626,-1.796 -6.8576,-6.8655 -10.8779,-11.2655 -4.0203,-4.4 -15.6601,-16.79 -25.8663,-27.5334 -39.8061,-41.9015 -50.136,-52.8946 -60.5778,-64.4666 -5.9554,-6.6 -18.1353,-20.1 -27.0665,-30 -33.7996,-37.4659 -47.2665,-54.1512 -67.1349,-83.1791 -29.6178,-43.2717 -36.4803,-57.5822 -57.9396,-120.8209 -21.5631,-63.5443 -28.465,-104.6924 -26.8376,-160 0.3561,-12.1 1.0599,-26.05 1.564,-31 0.5042,-4.95 1.3939,-14.4 1.9772,-21 4.6154,-52.225 13.0463,-105.4932 21.0372,-132.9166 13.4097,-46.0203 56.062,-137.40128 83.006,-177.83738 18.8344,-28.2658 46.1565,-55.43198 104.4154,-103.81963 47.5877,-39.52459 93.2124,-70.76901 152,-104.09178 57.0775,-32.35337 76.7759,-41.20399 125.5,-56.38795 11.9294,-3.71755 122.8953,-34.08683 143.7791,-39.34962 52.0452,-13.11558 80.1439,-17.43629 182.721,-28.09696 10.45,-1.08605 23.275,-2.43094 28.5,-2.98865 5.225,-0.55771 16.475,-1.68244 25,-2.49941 65.9172,-6.31694 133.6715,-14.56647 145,-17.65467 12.6978,-3.46149 19.5826,-7.45021 29.0966,-16.85735 4.7281,-4.675 10.6376,-10.975 13.1322,-14 4.4124,-5.35055 15.7712,-22.35281 15.7712,-23.60689 0,-0.34383 1.5988,-2.80311 3.5528,-5.46505 4.5934,-6.2574 11.8195,-11.93265 34.1414,-26.81397 38.6989,-25.79936 43.0222,-31.13083 35.2331,-43.44921 -12.6847,-20.06061 -13.0798,-21.2351 -9.9556,-29.58911 3.0475,-8.14914 10.9967,-18.63622 27.8132,-36.69312 17.7549,-19.06447 29.4484,-26.85396 41.4525,-27.61309 l 4.2626,-0.26956 -0.073,9.5 c -0.083,10.83673 -0.9476,14.05801 -7.048,26.25757 -2.4086,4.81666 -4.3792,9.82966 -4.3792,11.13999 0,3.9568 8.4279,14.28331 24.568,30.10244 26.1677,25.6474 30.6512,31.89478 34.5302,48.11501 3.3301,13.92502 1.4925,27.63992 -5.0152,37.43023 -1.6286,2.45012 -7.0797,7.60476 -12.1136,11.45476 -10.2883,7.86866 -32.0185,31.49949 -36.4454,39.63326 -2.5807,4.74163 -2.6316,5.09035 -1.005,6.88776 3.1968,3.53235 20.8571,8.17495 46.3986,12.19741 11.4194,1.79841 17.9617,2.14254 41.0824,2.16098 26.8758,0.0214 27.6985,-0.038 36.2446,-2.61725 19.1518,-5.78008 28.1291,-13.33281 51.0504,-42.94944 31.0613,-40.13444 39.0958,-47.45937 58.705,-53.52055 15.166,-4.68779 28.3875,-3.46841 64,5.90254 32.1274,8.45389 34.4607,8.87822 52.1575,9.48507 15.3031,0.52476 17.2525,0.39049 23.9748,-1.65134 19.745,-5.99736 32.4434,-15.69144 73.3677,-56.00936 41.1526,-40.54291 49.8247,-48.00013 64.9671,-55.86583 l 7.0331,-3.65325 18,0.0448 c 17.9061,0.0446 18.046,0.0621 26.8179,3.36915 16.0426,6.04807 46.4762,26.59992 65.3595,44.13737 13.7809,12.79868 15.749,16.61315 11.0148,21.34744 l -2.3079,2.30784 -9.9421,-1.7752 c -16.2444,-2.90048 -41.1303,-4.49915 -47.0059,-3.01967 -7.1453,1.79922 -15.7151,7.3934 -23.8297,15.55559 -12.3515,12.42401 -17.9847,24.70691 -19.5604,42.65022 -0.4645,5.28964 -0.5966,34.62125 -0.2935,65.18134 0.7185,72.44252 1.7601,67.476 -19.3378,92.20113 -7.0397,8.25 -19.3504,21.5695 -27.3572,29.59889 -24.401,24.47002 -38.3883,32.47327 -65.6143,37.54309 -8.2393,1.53426 -14.6564,1.8366 -37.4434,1.76414 -15.125,-0.0481 -29.525,-0.38921 -32,-0.75803 -8.6051,-1.2823 -43.5718,-2.78879 -57.3172,-2.46943 l -13.8309,0.32134 -2.9485,3.5 c -4.4558,5.28922 -14.7242,21.00681 -22.8657,35 -12.6403,21.72552 -21.6093,40.78672 -34.9807,74.34219 -14.1507,35.51102 -17.4693,39.57522 -60.557,74.16212 -35.9265,28.8386 -43.8686,36.4537 -41.01,39.3211 0.3699,0.371 9.446,0.8219 20.1691,1.002 15.0414,0.2527 20.3357,0 23.1687,-1.0871 2.0197,-0.778 5.6795,-1.5117 8.1329,-1.6304 7.5042,-0.363 23.2362,-8.2092 37.2229,-18.5644 9.9404,-7.3594 11.7902,-9.8119 9.3961,-12.4574 -2.0656,-2.2825 -2.023,-7.4756 0.076,-9.2157 2.234,-1.8523 10.1043,-1.5993 14.0329,0.4511 5.1411,2.6831 15.58,13.8261 19.0479,20.3326 2.4725,4.6389 3.6701,8.9083 5.235,18.6628 4.3955,27.3994 1.0275,52.25118 -7.971,58.81728 -4.1596,3.0352 -16.1902,4.869 -35.9101,5.4737 -10.2244,0.3136 -19.9848,0.9922 -21.6897,1.5081 -1.7049,0.5159 -5.7082,1.3625 -8.8964,1.8814 -6.9981,1.139 -11.6455,4.1287 -14.6062,9.3965 -1.8937,3.3695 -2.4017,6.719 -3.56,23.4754 -2.0969,30.3335 -4.7326,41.0874 -12.7452,52.0028 -6.845,9.3248 -17.2822,14.4574 -37.6523,18.5159 -19.6358,3.9123 -43.0822,5.7569 -80.4401,6.3284 l -34,0.5203 -20.5749,-5.0568 c -26.1243,-6.4206 -41.0617,-11.246 -52.4251,-16.9354 -4.95,-2.4783 -21.825,-12.2428 -37.5,-21.6989 -44.0255,-26.5588 -65.0727,-36.8009 -85.2887,-41.5033 -9.7925,-2.2778 -26.5343,-2.7038 -42.2113,-1.074 -4.95,0.5146 -15.75,1.408 -24,1.9854 -17.0728,1.1949 -45.8463,3.4528 -71.5,5.6106 -9.625,0.8097 -22.9,1.9246 -29.5,2.4776 -42.984,3.6018 -78.4191,11.7508 -131.5552,30.2537 -30.9254,10.7687 -37.9993,14.7872 -63.4448,36.0413 -38.4551,32.1209 -48.2379,42.917 -73.9961,81.6611 -15.7271,23.6558 -17.5371,28.4821 -23.0646,61.5 -2.1551,12.873 -2.5644,17.8566 -2.0945,25.5 1.3074,21.2666 14.3758,61.8845 26.7976,83.2896 10.9278,18.8309 22.4209,30.5538 44.0669,44.9485 25.3657,16.8683 37.1748,23.0278 94.7907,49.442 10.175,4.6648 41.675,20.0941 70,34.2873 28.325,14.1933 61.3178,30.3707 73.3174,35.9499 44.7833,20.8218 136.2393,67.6941 162.4841,83.2751 14.7231,8.7408 44.0091,28.1473 72.1985,47.8427 70.8378,49.4931 139.1254,109.8107 181.1016,159.9649 33.5472,40.0831 57.2941,72.9686 90.2633,125 2.6138,4.125 8.3854,13.125 12.8257,20 26.2146,40.5879 41.1035,66.5297 60.8373,106 15.3104,30.6231 21.8437,44.5067 28.9404,61.5 4.4181,10.5794 18.0666,45.5631 21.0675,54 14.7878,41.5751 23.1138,68.4434 29.9035,96.5 9.2945,38.4066 12.7116,62.6903 17.0598,121.2348 0.6019,8.1042 1.5243,15.9792 2.0498,17.5 1.9907,5.7617 4.0192,34.1082 5.0641,70.7652 1.1654,40.8858 0.577,102.304 -1.0968,114.5 -0.5662,4.125 -1.4904,12.675 -2.0538,19 -0.5634,6.325 -1.464,13.75 -2.0012,16.5 -0.5372,2.75 -1.6234,12.65 -2.4137,22 -2.0592,24.3613 -4.4536,47.2026 -5.556,53 -1.1514,6.0553 -3.3722,20.9961 -6.0199,40.5 -9.0338,66.5465 -29.7905,153.5385 -52.4931,220 -8.8044,25.7747 -31.4167,81.7555 -43.4245,107.5051 -2.2297,4.7814 -4.054,8.8701 -4.054,9.086 0,0.8307 -20.2049,41.4771 -26.0519,52.4089 -19.4015,36.2739 -58.0352,99.0303 -77.2594,125.5 -46.7248,64.3349 -80.2985,104.1155 -129.173,153.0532 -39.8418,39.8933 -64.9869,62.7839 -95.5157,86.9518 -6.875,5.4426 -15.425,12.2211 -19,15.0633 -39.3288,31.268 -95.0718,68.3029 -148.6701,98.7745 -34.5693,19.6533 -99.8849,50.3909 -145.3299,68.3923 -74.9394,29.6845 -177.0807,55.0133 -259,64.2263 -60.4027,6.7931 -117.5929,9.9055 -154.0001,8.3811 z m 105.8112,-446.838 c 73.0932,-7.4362 147.5912,-43.1545 212.6849,-101.9723 34.4304,-31.1108 58.0253,-57.1706 86.0436,-95.0322 38.4645,-51.978 67.7301,-103.8545 98.0646,-173.8309 23.5434,-54.3104 42.0635,-115.1173 57.8966,-190.0916 6.6424,-31.4535 9.0458,-46.1351 12.4541,-76.0775 1.1269,-9.9 2.2808,-20.025 2.5643,-22.5 8.3549,-72.9416 8.9783,-83.5892 7.4647,-127.5 -1.4512,-42.1006 -2.3681,-59.1435 -3.8737,-72 -0.644,-5.5 -1.5937,-13.825 -2.1104,-18.5 -2.5538,-23.106 -14.0023,-83.9672 -19.6574,-104.5 -1.9693,-7.15 -3.952,-14.8 -4.406,-17 -0.454,-2.2 -3.5571,-12.6755 -6.8958,-23.279 -21.5519,-68.4482 -57.3431,-136.2137 -98.3552,-186.221 -9.7647,-11.9064 -39.1868,-40.9222 -51.4887,-50.7776 -52.5121,-42.0691 -114.8534,-65.3393 -177.6967,-66.329 -14.7634,-0.2325 -40.5885,1.5858 -50,3.5204 -28.9591,5.9527 -54.2562,14.4512 -83.7766,28.1448 -68.656,31.8472 -141.6664,96.3508 -197.4469,174.4414 -45.7806,64.0911 -81.1024,132.5217 -111.7978,216.5908 -9.8685,27.028 -13.4851,37.9866 -19.8525,60.1536 -16.7797,58.4154 -27.7315,115.3321 -34.6843,180.2556 -1.1485,10.725 -2.5017,22.2 -3.007,25.5 -1.5753,10.2887 -2.3567,123.4804 -1.0009,145 2.2175,35.1973 8.6697,84.4022 15.2108,116 10.4072,50.273 24.3944,95.5498 41.4855,134.2891 32.1059,72.7723 65.3778,121.3362 113.7483,166.028 45.0129,41.5893 106.3549,69.7427 166.6213,76.472 8.835,0.9865 38.8736,0.5316 51.8112,-0.7846 z"
       id="path1" />
  </g>
</svg>
